<svg width="23" height="30" viewBox="0 0 23 30" fill="none" xmlns="http://www.w3.org/2000/svg">
<mask id="path-1-inside-1" fill="white">
<path d="M18.1875 30C17.7382 30 17.375 29.7206 17.375 29.375V0.625C17.375 0.279375 17.7382 0 18.1875 0C18.6368 0 19 0.279375 19 0.625V29.375C19 29.7206 18.6368 30 18.1875 30Z"/>
</mask>
<path d="M18.1875 30C17.7382 30 17.375 29.7206 17.375 29.375V0.625C17.375 0.279375 17.7382 0 18.1875 0C18.6368 0 19 0.279375 19 0.625V29.375C19 29.7206 18.6368 30 18.1875 30Z" stroke="white" stroke-width="4" mask="url(#path-1-inside-1)"/>
<mask id="path-2-inside-2" fill="white">
<path d="M22.2971 19.375H18.0799C17.6912 19.375 17.377 19.0956 17.377 18.75C17.377 18.4044 17.6912 18.125 18.0799 18.125H21.5914C21.498 7.62375 19.0044 3.71375 18 3.5C17.612 3.5 17.3707 0.97 17.3707 0.624375C17.3707 0.279375 17.6912 0 18.0799 0C21.0235 0 23 9.695 23 18.75C23 19.0956 22.6858 19.375 22.2971 19.375Z"/>
</mask>
<path d="M22.2971 19.375H18.0799C17.6912 19.375 17.377 19.0956 17.377 18.75C17.377 18.4044 17.6912 18.125 18.0799 18.125H21.5914C21.498 7.62375 19.0044 3.71375 18 3.5C17.612 3.5 17.3707 0.97 17.3707 0.624375C17.3707 0.279375 17.6912 0 18.0799 0C21.0235 0 23 9.695 23 18.75C23 19.0956 22.6858 19.375 22.2971 19.375Z" stroke="white" stroke-width="4" mask="url(#path-2-inside-2)"/>
<mask id="path-3-inside-3" fill="white">
<path d="M6 11.25C3.24357 11.25 1 9.28687 1 6.875V0.625C1 0.279375 1.31929 0 1.71429 0C2.10929 0 2.5967 0.279375 2.5967 0.625V6.875C2.5967 8.59813 4.03071 9.5 6 9.5C7.96929 9.5 9.5 8.5 9.5 7V0.625C9.5 0.279375 9.89071 0 10.2857 0C10.6807 0 11 0.279375 11 0.625V6.875C11 9.28687 8.75643 11.25 6 11.25Z"/>
</mask>
<path d="M6 11.25C3.24357 11.25 1 9.28687 1 6.875V0.625C1 0.279375 1.31929 0 1.71429 0C2.10929 0 2.5967 0.279375 2.5967 0.625V6.875C2.5967 8.59813 4.03071 9.5 6 9.5C7.96929 9.5 9.5 8.5 9.5 7V0.625C9.5 0.279375 9.89071 0 10.2857 0C10.6807 0 11 0.279375 11 0.625V6.875C11 9.28687 8.75643 11.25 6 11.25Z" stroke="white" stroke-width="4" mask="url(#path-3-inside-3)"/>
<mask id="path-4-inside-4" fill="white">
<path d="M6 30C5.447 30 5 29.7206 5 29.375V0.625C5 0.279375 5.447 0 6 0C6.553 0 7 0.279375 7 0.625V29.375C7 29.7206 6.553 30 6 30Z"/>
</mask>
<path d="M6 30C5.447 30 5 29.7206 5 29.375V0.625C5 0.279375 5.447 0 6 0C6.553 0 7 0.279375 7 0.625V29.375C7 29.7206 6.553 30 6 30Z" stroke="white" stroke-width="12" mask="url(#path-4-inside-4)"/>
</svg>
