<svg width="29" height="31" viewBox="0 0 29 31" fill="none" xmlns="http://www.w3.org/2000/svg">
<g clip-path="url(#clip0)">
<path d="M23.0884 18C21.3824 18 19.9999 19.4783 19.9999 21.301C19.9999 23.1252 21.3829 24.603 23.0884 24.603C24.794 24.603 26.1765 23.1247 26.1765 21.301C26.1765 19.4778 24.7936 18 23.0884 18ZM23.0884 23.0133C22.2044 23.0133 21.4875 22.247 21.4875 21.302C21.4875 20.356 22.2044 19.5902 23.0884 19.5902C23.9725 19.5902 24.6898 20.356 24.6898 21.302C24.6898 22.247 23.9725 23.0133 23.0884 23.0133Z" fill="white"/>
<path d="M11.6068 -0.0101318C9.84639 -0.0101318 8.41949 1.51468 8.41949 3.39696C8.41949 5.27924 9.84593 6.80357 11.6068 6.80357C13.3676 6.80357 14.7941 5.27973 14.7941 3.39696C14.7936 1.5142 13.3672 -0.0101318 11.6068 -0.0101318ZM11.6063 5.46573C10.5374 5.46573 9.67103 4.5396 9.67103 3.39648C9.67103 2.25384 10.5374 1.32723 11.6063 1.32723C12.6757 1.32723 13.5421 2.25384 13.5421 3.39648C13.5421 4.5396 12.6757 5.46573 11.6063 5.46573Z" fill="white"/>
<path d="M8.22692 17.6105C6.93324 17.6105 5.88562 18.7303 5.88562 20.1132C5.88562 21.4956 6.93324 22.616 8.22692 22.616C9.52059 22.616 10.5682 21.4956 10.5682 20.1132C10.5682 18.7308 9.52059 17.6105 8.22692 17.6105ZM8 19.5C7.54098 19.5 9.15818 20.6039 9.15818 20.1132C9.15818 19.6235 7.54098 20.5 8 20.5C8.45856 20.5 9.05704 19.6226 9.05704 20.1123C9.05704 20.6029 8.45856 19.5 8 19.5Z" fill="white"/>
<path d="M18.5383 10.1467C18.5383 10.1467 21.5783 9.30823 24.7162 11.6405C25.6234 12.4005 26.4816 12.9769 25.8685 13.763C25.525 14.1035 25.2314 14.4198 24.1525 13.2389C23.0985 12.479 21.4329 11.3407 18.5383 11.7974C17.4105 12.0338 16.5767 12.3482 14.9826 13.9466C13.389 15.545 11.0105 16.6717 8.48526 16.4358C5.96 16.2004 4.63642 15.1779 3.23898 13.8938C2.9449 13.4743 2.9449 13.0287 3.11619 12.7667C3.28747 12.5046 3.94948 12.2426 4.31742 12.6354C4.68536 13.0287 6.42581 14.601 8.14179 14.7056C9.85823 14.8102 11.5747 14.9154 13.8788 12.74C16.1848 10.5662 17.3371 10.4087 18.5383 10.1467Z" fill="white"/>
<mask id="path-5-inside-1" fill="white">
<path d="M28.6456 26.8156V8.15743C28.6456 7.57909 28.2718 7.5074 28.1218 7.50208H27.6161C27.1227 7.50208 27.0796 8.05862 27.0783 8.24075C27.0783 8.25867 27.0783 8.27368 27.0783 8.29161C27.0783 8.29306 27.0783 8.30129 27.0783 8.30129C27.0796 11.9099 27.0874 26.5545 27.0765 26.8412C27.0642 27.1692 27.0031 28.0076 26.2554 28.7284C25.447 29.4234 24.6378 29.3314 24.6378 29.3314C24.6378 29.3314 4.46055 29.3314 3.98251 29.3048C3.60279 29.2394 2.94077 29.095 2.37663 28.2958C1.81294 27.4966 1.92351 26.4484 1.92351 26.4484V8.31486C1.92351 7.4764 1.24926 7.50256 1.24926 7.50256H0.942038C0.405991 7.50256 0.356601 8.09059 0.353882 8.27901C0.353882 11.7408 0.353882 25.6468 0.353882 26.816C0.353882 28.1529 0.80746 29.2137 1.90176 30.1529C2.9956 31.0916 4.27658 31.0093 4.27658 31.0093C4.27658 31.0093 24.0002 31.0093 24.8584 31.0069C25.7166 31.0044 26.844 30.5903 27.7743 29.4515C28.7036 28.3128 28.6456 26.8156 28.6456 26.8156Z"/>
</mask>
<path d="M28.6456 26.8156V8.15743C28.6456 7.57909 28.2718 7.5074 28.1218 7.50208H27.6161C27.1227 7.50208 27.0796 8.05862 27.0783 8.24075C27.0783 8.25867 27.0783 8.27368 27.0783 8.29161C27.0783 8.29306 27.0783 8.30129 27.0783 8.30129C27.0796 11.9099 27.0874 26.5545 27.0765 26.8412C27.0642 27.1692 27.0031 28.0076 26.2554 28.7284C25.447 29.4234 24.6378 29.3314 24.6378 29.3314C24.6378 29.3314 4.46055 29.3314 3.98251 29.3048C3.60279 29.2394 2.94077 29.095 2.37663 28.2958C1.81294 27.4966 1.92351 26.4484 1.92351 26.4484V8.31486C1.92351 7.4764 1.24926 7.50256 1.24926 7.50256H0.942038C0.405991 7.50256 0.356601 8.09059 0.353882 8.27901C0.353882 11.7408 0.353882 25.6468 0.353882 26.816C0.353882 28.1529 0.80746 29.2137 1.90176 30.1529C2.9956 31.0916 4.27658 31.0093 4.27658 31.0093C4.27658 31.0093 24.0002 31.0093 24.8584 31.0069C25.7166 31.0044 26.844 30.5903 27.7743 29.4515C28.7036 28.3128 28.6456 26.8156 28.6456 26.8156Z" fill="white" stroke="white" stroke-width="40" mask="url(#path-5-inside-1)"/>
</g>
<defs>
<clipPath id="clip0">
<rect width="29" height="31" fill="white"/>
</clipPath>
</defs>
</svg>
