<?xml version="1.0" encoding="utf-8"?>
<!-- Generator: Adobe Illustrator 21.0.0, SVG Export Plug-In . SVG Version: 6.00 Build 0) -->
<svg version="1.1" id="Layer_1" xmlns="http://www.w3.org/2000/svg" xmlns:xlink="http://www.w3.org/1999/xlink" x="0px" y="0px" viewBox="0 0 70 97" style="enable-background:new 0 0 70 97;" xml:space="preserve">
  <g>
    <path
      d="M54.8,0c-0.1,0-0.3,0-0.4,0c-0.7,0.4-1.1,0.9-1.4,1.6c-0.6,1.1-1,2.3-1.3,3.4c-0.2,0.8-0.7,1.2-1.5,1.3
    c-2.3,0.4-4,1.7-5.2,3.7c-0.7,1.3-1.3,2.6-1.8,3.9c-1.4,3.7-2.5,7.5-3.8,11.2C38.7,27,38.6,27,36.7,27c-2.3,0-2.1-0.4-2.1,2.1
    c0,0.8,0.2,1.2,1.1,1.2c0.3,0,0.7-0.1,0.8,0.2c0.1,0.3-0.2,0.5-0.4,0.7c-1.2,1.3-2.7,2-4.3,2.4c-1.9,0.5-3.8,0.9-5.7,1.5
    c-4.7,1.6-9.1,3.8-12.6,7.6c-2.1,2.3-3.5,5-4.7,7.8C5,59.2,3.2,68.3,1.8,77.5c-0.6,4.3-1.1,8.6-1.5,13C0.2,92.7,0,94.8,0,97
    c11.1,0,22.2,0,33.3,0c0.1-0.5-0.1-0.9-0.2-1.3c-0.7-1.8-2.1-2.7-3.8-3.1c-0.7-0.2-0.8-0.4-0.4-0.9c0.7-0.9,1.2-2,1.6-3.1
    c1.6-4.8,2.3-9.8,3.1-14.8C34.2,70,35.1,66.4,37,63c1.5-2.5,3.3-4.6,5.6-6.4c0.8-0.6,0.9-0.6,1,0.4c0.1,0.7,0.1,1.4,0.2,2.2
    c0.3,4.7,0.3,9.5-0.2,14.2c-0.3,3.7-0.5,7.4-0.2,11c0.4,4.3,1.2,8.4,2.2,12.6c4.4,0,8.9,0,13.3,0c-0.3-2.2-2.1-4-4.2-4.4
    c-1.3-0.2-2.5-0.1-3.8,0.2c-0.6,0.1-0.8,0-0.9-0.6c-0.4-5.3-0.1-10.6,1-15.8c1.3-6,2.4-12.1,3.1-18.2c0.3-2.5,1-4.8,2.3-7
    c1.2-2.1,2.2-4.3,3.4-6.5c0.9-1.7,1.1-3.4,0.4-5.2c-0.3-0.7-0.5-1.4-0.9-2.1c-1-2-2-3.9-2.9-5.9c-0.5-1-0.4-1.1,0.7-1.1
    c1.6,0,1.6,0,1.7-1.6c0-0.2,0-0.4,0-0.7c0-0.7-0.3-1.1-1-1c-0.5,0-1,0-1.5,0c-0.7,0-0.9-0.3-0.7-1c0.6-2.3,2.8-4.1,5.1-4.4
    c2.2-0.3,4.4,0,6.6,0.4c0.6,0.1,1,0,1.3-0.6c0.4-1,0.8-2,1.3-3c0.2-0.4,0.2-0.8-0.1-1.1C66.6,13.2,63.1,9.4,58.4,7
    c-0.5-0.3-0.8-0.6-0.9-1.1c-0.3-1.4-0.7-2.8-1.3-4.2C55.9,1,55.6,0.4,54.8,0z"/>
  </g>
</svg>
