<?xml version="1.0" encoding="utf-8"?>
<!-- Generator: Adobe Illustrator 15.0.0, SVG Export Plug-In . SVG Version: 6.00 Build 0) -->
<!DOCTYPE svg PUBLIC "-//W3C//DTD SVG 1.1//EN" "http://www.w3.org/Graphics/SVG/1.1/DTD/svg11.dtd">
<svg version="1.1" id="Layer_1" xmlns="http://www.w3.org/2000/svg" xmlns:xlink="http://www.w3.org/1999/xlink" x="0px" y="0px" width="23px" height="23px" viewBox="-3 -3 23 23" enable-background="new -3 -3 23 23" xml:space="preserve">
  <path
    d="M14.002-1.501c2.48,0,4.498,2.02,4.498,4.501v11c0,2.481-2.018,4.5-4.498,4.5H3.01
  c-2.48,0-4.498-2.019-4.498-4.5V3c0-2.481,2.018-4.5,4.498-4.5h10.992 M14.002-3H3.01C-0.29-3-2.987-0.301-2.987,3v11.001
  C-2.987,17.299-0.29,20,3.01,20h10.995C17.301,20,20,17.299,20,13.999V3C20-0.301,17.301-3,14.002-3L14.002-3z"/>
  <path
    d="M8.506,4.078c2.44,0,4.429,1.985,4.429,4.428c0,2.44-1.989,4.43-4.429,4.43c-2.443,0-4.428-1.989-4.428-4.43
  C4.078,6.063,6.063,4.078,8.506,4.078 M8.506,2.578c-3.273,0-5.928,2.654-5.928,5.928s2.654,5.927,5.928,5.927
  c3.274,0,5.926-2.653,5.926-5.927S11.78,2.578,8.506,2.578L8.506,2.578z"/>
  <circle cx="14.646" cy="2.379" r="1.341"/>
</svg>
