<?xml version="1.0" encoding="utf-8"?>
<!-- Generator: Adobe Illustrator 15.0.0, SVG Export Plug-In . SVG Version: 6.00 Build 0) -->
<!DOCTYPE svg PUBLIC "-//W3C//DTD SVG 1.1//EN" "http://www.w3.org/Graphics/SVG/1.1/DTD/svg11.dtd">
<svg
  version="1.1"
  id="Layer_1"
  xmlns="http://www.w3.org/2000/svg"
  xmlns:xlink="http://www.w3.org/1999/xlink"
  x="0px"
  y="0px"
  width="30.004px"
  height="15.761px"
  viewBox="3.007 11.628 30.004 15.761"
  enable-background="new 3.007 11.628 30.004 15.761"
  xml:space="preserve">
  <g>
    <path
      d="M26.945,27.388c-0.386,0-1.17-0.082-2.075-0.632c-0.642-0.385-1.223-0.968-1.784-1.532
    c-0.438-0.44-1.171-1.177-1.447-1.177c-0.268,0.075-0.481,0.921-0.476,1.569c0.004,0.113-0.001,0.774-0.468,1.213
    c-0.425,0.4-1.088,0.485-1.216,0.498l-1.926,0.007c-0.967,0-4.358-0.218-7.429-3.021c-3.674-3.358-6.835-9.798-6.968-10.07
    c-0.197-0.462-0.248-1.066,0.152-1.482c0.392-0.413,1.081-0.472,1.359-0.479l4.083-0.024l0.115,0.008
    c0.091,0.014,0.567,0.095,0.957,0.349c0.388,0.247,0.59,0.651,0.626,0.73c0.01,0.021,0.649,1.432,1.475,2.684
    c1.312,1.99,1.896,2.455,2.103,2.562c0.188-0.417,0.277-1.7,0.187-2.871c0.001-0.493-0.101-1.098-0.252-1.278
    c-0.112-0.134-0.426-0.253-0.778-0.294l-0.722-0.691c-0.096-0.658,0.635-1.226,1.149-1.446c0.737-0.316,1.792-0.382,3.147-0.382
    l0.71,0.005c1.235,0.012,1.622,0.081,2.149,0.191c1.702,0.361,1.64,1.729,1.567,3.312c-0.021,0.464-0.046,1.001-0.046,1.621
    c0,0.151-0.005,0.312-0.011,0.479c-0.012,0.38-0.032,1.038,0.093,1.304c0.219-0.145,0.852-0.665,2.072-2.483
    c0.783-1.165,1.4-2.539,1.517-2.803l0.001-0.001c0.182-0.43,0.608-0.941,1.613-0.946l4.274-0.024
    c0.012-0.003,0.172-0.016,0.377-0.016c0.98,0,1.597,0.287,1.832,0.854c0.269,0.65,0.169,1.657-2.354,4.605
    c-0.37,0.432-0.697,0.804-0.982,1.127c-0.598,0.678-1.216,1.379-1.237,1.595c0.053,0.169,0.662,0.665,1.252,1.145
    c1.53,1.247,2.528,2.264,3.033,3.073c0.522,0.759,0.429,1.33,0.258,1.677c-0.424,0.864-1.638,0.973-1.877,0.985l-3.79,0.047
    C27.153,27.382,27.063,27.388,26.945,27.388z M21.638,22.548c0.899,0,1.682,0.786,2.511,1.618c0.497,0.5,1.011,1.016,1.496,1.307
    c0.727,0.44,1.316,0.421,1.398,0.412l0.103-0.009l3.805-0.047c0.171-0.012,0.411-0.073,0.536-0.136
    c-0.018-0.039-0.048-0.094-0.098-0.167c-0.449-0.718-1.388-1.659-2.686-2.718c-1.184-0.963-1.801-1.465-1.865-2.244
    c-0.066-0.805,0.493-1.439,1.607-2.703c0.28-0.318,0.604-0.685,0.967-1.109c1.559-1.821,1.957-2.64,2.058-2.956
    c-0.17-0.029-0.648-0.021-0.678-0.018l-4.361,0.028c-0.191,0.001-0.249,0.035-0.249,0.036c-0.176,0.414-0.812,1.812-1.644,3.05
    c-1.895,2.82-2.785,3.2-3.407,3.201c-0.204,0-0.396-0.05-0.569-0.148c-1.003-0.569-0.963-1.834-0.934-2.757
    c0.005-0.149,0.01-0.295,0.01-0.431c0-0.646,0.025-1.207,0.048-1.689c0.076-1.68,0.016-1.692-0.379-1.776
    c-0.409-0.086-0.705-0.147-1.856-0.159l-0.693-0.005c-0.624,0-1.343,0.014-1.906,0.098c0.092,0.074,0.18,0.157,0.259,0.251
    c0.588,0.704,0.604,1.951,0.601,2.194c0.13,1.646,0.061,3.796-1.018,4.313c-0.191,0.092-0.392,0.137-0.597,0.137
    c-0.926,0-1.854-0.885-3.425-3.267c-0.895-1.354-1.56-2.824-1.587-2.887c-0.011-0.021-0.054-0.077-0.075-0.094
    c-0.083-0.054-0.233-0.097-0.32-0.116l-4.001,0.024c-0.021,0.001-0.045,0.002-0.07,0.005c0.591,1.189,3.426,6.592,6.519,9.419
    c2.74,2.502,5.826,2.629,6.417,2.629l1.851-0.003c0.046-0.01,0.218-0.062,0.269-0.1c-0.019,0.018-0.01-0.053-0.01-0.097
    c-0.003-0.265,0.012-2.595,1.578-3.034C21.369,22.566,21.502,22.548,21.638,22.548z"/>
  </g>
</svg>
