<?xml version="1.0" encoding="utf-8"?>
<!-- Generator: Adobe Illustrator 21.0.0, SVG Export Plug-In . SVG Version: 6.00 Build 0) -->
<svg version="1.1" id="Layer_1" xmlns="http://www.w3.org/2000/svg" xmlns:xlink="http://www.w3.org/1999/xlink" x="0px" y="0px" viewBox="0 0 202 59.5" style="enable-background:new 0 0 202 59.5;" xml:space="preserve">
  <style type="text/css">
    .st0 {
      fill: #FDC305;
    }
    .st1 {
      fill: #F06351;
    }
    .st2 {
      fill: #E55645;
    }
    .st3 {
      fill: #111111;
    }
    .st4 {
      fill: #444444;
    }
  </style>
  <path
    class="st0"
    d="M59.9,24c-5.5-13-20.5-19.2-33.5-13.8S7.2,30.7,12.6,43.7c3.6,8.6,11.3,14.2,19.9,15.5
  c-0.6-2.1-1.2-4.4-1.7-6.9c1.5,1,3.1,1.8,4.8,2.6c0,0,0,0,0,0c0,0,0.1,2.2,0.3,4.6c1.8,0,3.6-0.1,5.3-0.5c0-0.2,0-0.4,0-0.8
  c0.3-1.9,1.1-5.2,1.2-7.4c1.1-1.1,2.1-2.3,2.9-3.7c0,0,0,0,0,0c0,0.1,0,0.3-0.1,0.4c-0.6,4.3-1.7,8.8-2.4,10.1
  c-0.2,0.4-0.5,0.9-0.8,1.2c1.4-0.3,2.7-0.8,4.1-1.3C59.2,52,65.3,37,59.9,24z M58.4,27.8c-0.4,0.4-1.3,0.7-1.5-0.6S56.7,25,56.7,25
  s-1.9-3.4-2.7-3.5c-0.7,0-5.8,3.5-7.2,5c-1.2,1.3-1.4,1.2-1.4,3.5c0,1.7,0.2,8.2,0.1,13.1v0v0c0,0-2.2,0.6-8.1,2.2
  c-6,1.6-7.8,1.8-7.8,1.8l-1-5.8c0,0,0,0,0,0c0,0,0,0,0,0c0,0,0,0,0,0c0,0,0,0,0,0c0,0,0,0,0,0c0,0,0,0,0,0L25.9,28
  c0,0-3.8-1.4-5.2-1.8c-1.4-0.4-2.3-0.7-4,0.6c-1.8,1.3-1.7,3.9-1.7,3.9s0.4,1,0.5,1.4c0,0.5-1.2,0.4-2,0.4s-0.9-1.4-0.3-3.1
  c0.6-1.7,1.9-3.7,1.9-3.7s1.2-2.3,2.1-2.9c0,0,0.1-0.3,1.3-0.2c1.1,0.1,7.3,0.4,7.3,0.4l0.1-2.3c6.7-0.9,13.5-1.4,20.2-1.3
  c0,0.6,0,1.2-0.1,1.8c0,0,4.4-2,8.1-2c0,0,0.4,0,0.8,0.4c0.3,0.4,2.4,3,2.7,3.4c0.2,0.4,1.2,1.7,1.8,3C59.3,26,58.8,27.3,58.4,27.8z
  "/>
  <path
    class="st1"
    d="M56.5,21.7c0.5,0.6,0.9,1.1,1,1.3c0.2,0.4,1.2,1.7,1.8,3c0,0-0.4,1.3-0.9,1.8s-1.3,0.7-1.5-0.6S56.7,25,56.7,25
  s-1.9-3.4-2.7-3.5c-0.7,0-5.8,3.5-7.2,5c-1.2,1.3-1.4,1.2-1.4,3.5c0,1.5,0.2,6.6,0.1,11.2c1.8,0.2,4.5,0.7,5.3,1.9
  c0,0-0.3-7.2,7.8-3.4c0,0,0.3-9.8,11.5-7.3C70.2,32.4,64.5,25.4,56.5,21.7z"/>
  <path class="st1" d="M45.9,19.4c0.1-8.5-1.4-16.5-1.4-16.5s-0.1-1.3-0.9-0.2c-0.7,1.1-1.2,4-1.2,4C35,6.1,29.6,6.9,29.6,6.9
  c-0.8-2.7-2.2-4-2.9-3.7C26.1,3.5,26,6.5,26,6.5l-0.3,14.2C32.4,19.8,39.2,19.3,45.9,19.4z"/>
  <path class="st2" d="M45.4,47.1c0.1-1.1,0.2-2.5,0.2-4.1c0,0-2.2,0.6-8.1,2.2c-6,1.6-7.8,1.8-7.8,1.8l1.1,5c0,0.1,0,0.2,0.1,0.3
  c1.5,1,3.1,1.8,4.8,2.6c4.4-2.2,6.9-4.1,6.9-4.1c0,0,0,0,0,0.1C43.6,49.8,44.6,48.5,45.4,47.1z"/>
  <path d="M32,16.2c0-0.1,1,0.7,1.4,0.9c0.4,0.2,0.6,0.4,0.6,0.6c0,0.2-0.3,0.3-0.6,0.3s-0.9-0.1-1-0.3c0,0,0.6,0,0.9,0h0.3
  C33.7,17.8,32.3,16.7,32,16.2z"/>
  <path d="M39.5,16.3c0,0-1.1,1.3-1.1,1.3c0,0.1-0.2,0.3,0.2,0.3c0.4,0,1.1-0.2,1.2-0.3c0.1-0.1,0.1-0.2-0.1-0.2c-0.2,0-0.7,0-1,0.1
  L39.5,16.3C39.6,16.3,39.6,16.2,39.5,16.3z"/>
  <path d="M36.4,22.4c0,0,0.8-0.4,1.1-1c0.3-0.7,0-0.9-0.4-1s-1.3,0-1.7,0.3c-0.4,0.4-0.3,0.7-0.1,1C35.5,22,36.1,22.4,36.4,22.4z"/>
  <path class="st1" d="M35.9,23.7c0,0-0.2,0.4-0.5,0.6c-0.2,0.2-0.6,0.4-1,0.4c-0.6,0-1.1-0.2-1.5-0.4c-0.2-0.1-0.4-0.3-0.5-0.4
  c-0.2-0.2-0.4-0.3-0.4-0.3s0.8,4.1,2.6,4.8c1.8,0.7,2.2-0.8,2.2-1.1c0-0.3,0-2.1-0.8-3.2C36.1,23.6,36,23.8,35.9,23.7z"/>
  <g>
    <path
      d="M34.3,24.8C34.3,24.8,34.3,24.8,34.3,24.8c-1.3,0-2.3-1.4-2.4-1.4c0-0.1,0-0.2,0-0.2c0.1,0,0.2,0,0.2,0c0,0,1,1.3,2.1,1.3
    c0,0,0,0,0,0c0.6,0,1.1-0.3,1.6-1l0.1-0.2l0.1,0.2c0,0,0.4,0.8,1,0.8c0.5,0,1.1-0.4,1.6-1.3c0-0.1,0.1-0.1,0.2,0
    c0.1,0,0.1,0.1,0,0.2c-0.6,1-1.3,1.5-1.9,1.4c-0.6,0-0.9-0.5-1.1-0.8C35.5,24.5,34.9,24.8,34.3,24.8z"/>
  </g>
  <ellipse transform="matrix(0.9227 -0.3855 0.3855 0.9227 -10.5155 16.6462)" class="st0" cx="36.3" cy="34.5" rx="3.8" ry="3.8"/>
  <path class="st3" d="M41.2,31.5l-3.1,1.3l1.1-5.6l-7.5,9.8l3.1-1.3l-1.1,5.6L41.2,31.5z M33.8,35.3l4.1-5.4l-0.8,4l2-0.8L35,38.5
  l0.8-4L33.8,35.3z"/>
  <ellipse transform="matrix(0.9227 -0.3855 0.3855 0.9227 -10.1149 15.0347)" class="st3" cx="32.4" cy="32.7" rx="1.1" ry="1.1"/>
  <ellipse transform="matrix(0.9227 -0.3855 0.3855 0.9227 -11.304 17.8881)" class="st3" cx="39" cy="37.1" rx="0.8" ry="0.8"/>
  <ellipse transform="matrix(0.9227 -0.3855 0.3855 0.9227 -10.5603 18.1253)" class="st3" cx="39.9" cy="35.4" rx="0.3" ry="0.3"/>
  <path
    class="st1"
    d="M45.9,21.2c0,0-2.6,2.3-5.1,5.2s-5.3,4.9-5.3,4.9c-0.2-0.5-1.6-1.5-1.6-1.5s-3.1-2.1-5.2-3.8
  c-1.2-1-2.4-2.2-3.1-3c-0.3,0-1.1-0.1-2-0.1c4.7,7,12,8.8,12,8.8c0.9-0.1,3.3-1.9,5.1-3.3c1.8-1.4,4.8-4.5,6-5.9
  c0.6-0.7,0.9-1.4,1.1-2C46.6,20.8,45.9,21.2,45.9,21.2z"/>
  <polygon class="st0" points="65.2,3.5 56.8,12.9 55.5,10.9 63.7,0 "/>
  <polygon class="st0" points="62.6,17.3 68.2,13.1 67.4,9.4 62,14.2 "/>
  <polygon class="st0" points="59.9,49.4 66.1,52.6 69.1,50.2 62.4,47.5 "/>
  <polygon class="st0" points="2,6 5,2.6 14.3,11.6 13.1,13.9 "/>
  <polygon class="st0" points="7.4,16.3 2.7,13.2 0.3,17 5.4,19.4 "/>
  <polygon class="st0" points="13.9,52.6 9.4,55.9 12.2,59.5 16.2,55.5 "/>
  <path
    class="st1"
    d="M25.9,28c0,0-3.8-1.4-5.2-1.8c-1.4-0.4-2.3-0.7-4,0.6c-1.8,1.3-1.7,3.9-1.7,3.9s0.4,1,0.5,1.4
  c0,0.5-1.2,0.4-2,0.4s-0.9-1.4-0.3-3.1c0.6-1.7,1.9-3.7,1.9-3.7c-5.4,2.8-15,9.4-15,9.4s2.9-0.3,8.2,0.2c5.3,0.5,5,4.7,5,4.7
  s3.5-1,5.6-1.1c2.1-0.1,2.3,2.1,2.3,2.1l0.5,3.9c0,0,0.5-0.6,2.7-2.4c1.9-1.5,3.9-1.4,4.4-1.3c0,0,0,0,0,0L25.9,28z"/>
  <g>
    <path
      class="st3"
      d="M85.7,42c-0.9-1.2-1.4-2.9-1.4-5.2v-7.5c0-2.3,0.5-4.1,1.4-5.2c0.9-1.2,2.5-1.8,4.8-1.8c2.1,0,3.7,0.5,4.5,1.6
    c0.9,1,1.3,2.5,1.3,4.5v1.8h-4.1v-1.9c0-0.6,0-1.1-0.1-1.5c-0.1-0.4-0.2-0.7-0.5-0.9c-0.2-0.2-0.6-0.4-1.2-0.4
    c-0.8,0-1.3,0.3-1.5,0.8c-0.2,0.5-0.3,1.2-0.3,2.2v9.5c0,1,0.1,1.7,0.4,2.2c0.3,0.5,0.7,0.7,1.4,0.7c0.7,0,1.2-0.2,1.4-0.7
    c0.2-0.5,0.3-1.2,0.3-2.2v-2h4.1v1.7c0,2-0.4,3.6-1.3,4.6c-0.9,1.1-2.4,1.6-4.6,1.6C88.2,43.8,86.6,43.2,85.7,42z"/>
    <path class="st3" d="M101.9,22.6h4.7l4,21h-3.9l-0.8-4.6h-3.3l-0.8,4.6h-4L101.9,22.6z M105.6,36.3l-1.3-8.4l-1.2,8.4H105.6z"/>
    <path class="st3" d="M113.7,25.7h-3.2v-3.2h10.7v3.2H118v17.8h-4.3V25.7z"/>
    <path class="st4" d="M129.6,22.6h8.1v2.2h-5.2v6.9h4.2v2.1h-4.2v7.7h5.3v2.1h-8.2V22.6z"/>
    <path class="st4" d="M140.1,22.6h2l6,13.9V22.6h2.4v21h-1.9l-6-14.3v14.3h-2.5V22.6z"/>
    <path class="st4" d="M153.8,22.6h8.1v2.2h-5.2v6.9h4.2v2.1h-4.2v7.7h5.3v2.1h-8.2V22.6z"/>
    <path
      class="st4"
      d="M164.4,22.6h4.2c2.1,0,3.7,0.4,4.7,1.3c1,0.9,1.5,2.3,1.5,4.3c0,2.7-0.9,4.3-2.6,4.9l3,10.5h-2.8l-2.7-9.8
    h-2.3v9.8h-2.9V22.6z M168.4,31.6c1.3,0,2.2-0.2,2.7-0.8c0.5-0.5,0.8-1.4,0.8-2.7c0-0.9-0.1-1.5-0.3-2c-0.2-0.5-0.5-0.9-1-1.1
    c-0.5-0.2-1.2-0.3-2-0.3h-1.3v6.9H168.4z"/>
    <path
      class="st4"
      d="M178.7,42c-0.8-1.2-1.3-3-1.3-5.3v-7c0-1.6,0.2-3,0.5-4c0.3-1,0.9-1.8,1.7-2.4c0.8-0.6,1.9-0.8,3.4-0.8
    c1.9,0,3.3,0.5,4.2,1.5c0.9,1,1.3,2.5,1.3,4.6v0.8h-2.7v-0.6c0-1-0.1-1.8-0.2-2.3c-0.1-0.5-0.4-1-0.8-1.2c-0.4-0.3-1-0.4-1.7-0.4
    c-0.8,0-1.4,0.2-1.8,0.6c-0.4,0.4-0.7,0.9-0.8,1.5c-0.1,0.6-0.2,1.4-0.2,2.5V37c0,1.6,0.2,2.8,0.6,3.5c0.4,0.7,1.1,1,2.2,1
    c1.1,0,1.8-0.4,2.2-1.1c0.4-0.8,0.6-2,0.6-3.6v-1.4h-2.7v-2.1h5.3v10.4h-1.8l-0.3-2.4c-0.7,1.8-1.9,2.7-3.7,2.7
    C180.9,43.8,179.5,43.2,178.7,42z"/>
    <path class="st4" d="M194.7,36.1l-4.5-13.6h2.7l3.2,10.1l3.2-10.1h2.7l-4.5,13.6v7.4h-2.8V36.1z"/>
  </g>
</svg>
