<svg width="23" height="30" viewBox="0 0 23 30" fill="none" xmlns="http://www.w3.org/2000/svg"><mask id="a" fill="#fff"><path d="M18.188 30c-.45 0-.813-.28-.813-.625V.625c0-.346.363-.625.813-.625.449 0 .812.28.812.625v28.75c0 .346-.363.625-.813.625z"/></mask><path d="M18.188 30c-.45 0-.813-.28-.813-.625V.625c0-.346.363-.625.813-.625.449 0 .812.28.812.625v28.75c0 .346-.363.625-.813.625z" stroke="#fff" stroke-width="4" mask="url(#a)"/><mask id="b" fill="#fff"><path d="M22.297 19.375H18.08c-.389 0-.703-.28-.703-.625 0-.346.314-.625.703-.625h3.511C21.498 7.624 19.004 3.714 18 3.5c-.388 0-.63-2.53-.63-2.876 0-.345.321-.624.71-.624C21.024 0 23 9.695 23 18.75c0 .346-.314.625-.703.625z"/></mask><path d="M22.297 19.375H18.08c-.389 0-.703-.28-.703-.625 0-.346.314-.625.703-.625h3.511C21.498 7.624 19.004 3.714 18 3.5c-.388 0-.63-2.53-.63-2.876 0-.345.321-.624.71-.624C21.024 0 23 9.695 23 18.75c0 .346-.314.625-.703.625z" stroke="#fff" stroke-width="4" mask="url(#b)"/><mask id="c" fill="#fff"><path d="M6 11.25c-2.756 0-5-1.963-5-4.375V.625C1 .279 1.32 0 1.714 0c.395 0 .883.28.883.625v6.25C2.597 8.598 4.03 9.5 6 9.5s3.5-1 3.5-2.5V.625c0-.346.39-.625.786-.625.395 0 .714.28.714.625v6.25c0 2.412-2.244 4.375-5 4.375z"/></mask><path d="M6 11.25c-2.756 0-5-1.963-5-4.375V.625C1 .279 1.32 0 1.714 0c.395 0 .883.28.883.625v6.25C2.597 8.598 4.03 9.5 6 9.5s3.5-1 3.5-2.5V.625c0-.346.39-.625.786-.625.395 0 .714.28.714.625v6.25c0 2.412-2.244 4.375-5 4.375z" stroke="#fff" stroke-width="4" mask="url(#c)"/><mask id="d" fill="#fff"><path d="M6 30c-.553 0-1-.28-1-.625V.625C5 .279 5.447 0 6 0c.553 0 1 .28 1 .625v28.75c0 .346-.447.625-1 .625z"/></mask><path d="M6 30c-.553 0-1-.28-1-.625V.625C5 .279 5.447 0 6 0c.553 0 1 .28 1 .625v28.75c0 .346-.447.625-1 .625z" stroke="#fff" stroke-width="12" mask="url(#d)"/></svg>