<svg version="1.1" id="Layer_2" x="0" y="0" viewBox="0 0 190.4 37.6" xmlns="http://www.w3.org/2000/svg"><style>.st0{fill:#fdc305}.st1{fill:#f06351}</style><path class="st0" d="M6.1 20.7l.1-2.3c6.7-.9 13.4-1.4 20.2-1.3 0 .6 0 1.2-.1 1.8 0 0 2.9-1.3 6-1.8-2.4-6.3-8.5-10.8-15.6-10.8C8.4 6.3 1.5 12.4.2 20.4c2.2.1 5.9.3 5.9.3zm21.1 3.5c-1.2 1.3-1.4 1.2-1.4 3.5v9.2c4.5-3 7.4-8.1 7.4-13.9 0-1.1-.1-2.1-.3-3.1-1.7 1.1-4.7 3.2-5.7 4.3zM6.4 25.7s-3.8-1.4-5.2-1.8L0 23.6c.2 6 3.7 11.3 8.7 14L6.4 25.7z"/><path class="st1" d="M26.3 17.1C26.4 8.6 24.9.6 24.9.6s-.2-1.2-.9-.2c-.7 1.1-1.2 3.9-1.2 3.9-7.4-.4-12.8.3-12.8.3C9.2 2 7.9.8 7.2 1c-.7.3-.7 3.4-.7 3.4l-.4 14.1c6.7-1 13.5-1.4 20.2-1.4z"/><path d="M12.4 14c0-.1 1 .7 1.4.9.4.2.6.4.6.6 0 .2-.3.3-.6.3s-.9-.1-1-.3H14c.1.1-1.3-1-1.6-1.5zm7.5.1s-1 1.3-1.1 1.3c0 .1-.2.3.2.3s1.1-.2 1.2-.3c.1-.1.1-.2-.1-.2s-.7 0-1 .1l.8-1.2s.1-.1 0 0zm-3.1 6.1s.8-.4 1.1-1c.3-.7 0-.9-.4-1-.5-.1-1.3 0-1.7.3-.4.4-.3.7-.1 1 .2.2.8.6 1.1.7z"/><path class="st1" d="M16.3 21.5s-.2.4-.5.6c-.2.2-.6.4-1 .4-.6 0-1.1-.2-1.5-.4-.2-.1-.4-.3-.5-.4-.2-.2-.4-.3-.4-.3s.7 4.1 2.6 4.7c1.8.6 2.1-.7 2.2-1.1 0-.3 0-2.1-.8-3.2.1-.4 0-.2-.1-.3z"/><path d="M14.7 22.6c-1.3 0-2.3-1.4-2.3-1.4V21h.2s1 1.3 2.1 1.3c.6 0 1.1-.3 1.6-1l.1-.2.1.2s.4.8 1 .8c.5 0 1.1-.4 1.6-1.3 0-.1.1-.1.2 0 .1 0 .1.1 0 .2-.6 1-1.3 1.4-1.9 1.4-.6 0-.9-.5-1.1-.8-.4.7-1 1-1.6 1z"/><path class="st1" d="M26.2 18.9s-2.5 2.2-5.1 5.2-5.2 4.9-5.2 4.9c-.2-.5-1.6-1.5-1.6-1.5s-3.1-2.1-5.2-3.8c-1.2-1-2.3-2.2-3.1-3-.3 0-1.1-.1-2-.1 4.7 7 12 8.8 12 8.8.9-.1 3.3-1.9 5.1-3.3 1.8-1.4 4.8-4.5 5.9-5.9.6-.7.9-1.4 1.1-2-1.1.4-1.9.7-1.9.7z"/><path class="st0" d="M1.2 16.6c-.8-1-1.2-2.5-1.2-4.4V5.9C0 4 .4 2.5 1.2 1.5 2 .5 3.4 0 5.4 0c1.9 0 3.2.4 4 1.3.8.9 1.2 2.1 1.2 3.8v1.5h-4V4.8c0-.7-.1-1.2-.2-1.6-.1-.3-.5-.5-1-.5s-1 .2-1.1.6c-.2.4-.3.9-.3 1.6v8.3c0 .7.1 1.2.3 1.6.2.4.5.6 1.1.6.5 0 .9-.2 1-.6.2-.4.2-.9.2-1.6v-1.8h3.9v1.5c0 1.6-.4 2.9-1.2 3.9-.8.9-2.1 1.4-4 1.4-1.9-.1-3.3-.6-4.1-1.6zM15.2.2h4.5L23 17.8h-3.6l-.6-3.7h-2.6l-.6 3.7h-3.7L15.2.2zm3.2 11.6l-.9-6.9-.9 6.9h1.8zm7.4-8.7h-2.7V.2h9.3v2.9h-2.7v14.7h-4V3.1zM39.5.2h6.9V2H42v5.8h3.6v1.7H42v6.4h4.5v1.8h-7V.2zm9 0h1.7l5.1 11.7V.2h2.1v17.6h-1.6l-5.1-12v12h-2.1V.2zm11.3 0h6.9V2h-4.4v5.8h3.6v1.7h-3.6v6.4h4.5v1.8h-7V.2zm9 0h3.6c1.8 0 3.1.4 4 1.1s1.3 1.9 1.3 3.6c0 2.3-.7 3.6-2.2 4.1l2.5 8.8h-2.4l-2.3-8.3h-1.9v8.3h-2.5V.2zm3.4 7.6c1.1 0 1.8-.2 2.3-.6.5-.4.7-1.2.7-2.3 0-.7-.1-1.3-.2-1.7s-.4-.7-.9-.9c-.4-.2-1-.3-1.7-.3h-1.1v5.8h.9zm8.6 8.7c-.7-1-1.1-2.5-1.1-4.5V6.2c0-1.4.1-2.5.4-3.4.3-.9.8-1.5 1.5-2s1.7-.7 2.9-.7c1.6 0 2.8.4 3.6 1.2.7.8 1.1 2.1 1.1 3.9v.7h-2.3v-.6c0-.8-.1-1.5-.2-1.9-.1-.5-.3-.8-.7-1-.3-.3-.8-.4-1.4-.4-.7 0-1.2.2-1.5.5-.3.3-.6.7-.7 1.2-.1.5-.1 1.2-.1 2.1v6.5c0 1.3.2 2.3.5 2.9.3.6 1 .9 1.9.9.9 0 1.6-.3 1.9-1 .3-.6.5-1.7.5-3.1v-1.2h-2.3V9.1h4.5v8.7h-1.6l-.2-2c-.6 1.5-1.6 2.2-3.2 2.2s-2.8-.5-3.5-1.5zm13.5-4.9L90.4.2h2.3l2.7 8.5L98.1.2h2.3l-3.8 11.4v6.2h-2.4v-6.2z" fill="#111" transform="translate(90 10.2)"/></svg>