<svg version="1.1" id="Layer_2" xmlns="http://www.w3.org/2000/svg" x="0" y="0" viewBox="0 0 172.3 57.1" xml:space="preserve"><style>.st1{fill:#f06351}.st3{fill:#111}</style><path d="M59.6 21.7C54.2 8.7 39.3 2.6 26.3 8S7.1 28.4 12.6 41.4c3.6 8.5 11.3 14.1 19.8 15.4-.6-2.1-1.2-4.4-1.7-6.8 1.5 1 3.1 1.8 4.7 2.5 0 0 .1 2.1.3 4.5 1.8 0 3.5-.1 5.3-.5v-.8c.3-1.9 1.1-5.2 1.2-7.4 1.1-1.1 2.1-2.3 2.9-3.7 0 .1 0 .3-.1.4-.6 4.2-1.7 8.8-2.4 10-.2.4-.5.9-.8 1.1 1.4-.3 2.7-.8 4.1-1.3 13-5.1 19.2-20.1 13.7-33.1zm-1.4 3.8c-.4.4-1.3.7-1.5-.6-.1-1.3-.2-2.2-.2-2.2s-1.9-3.4-2.6-3.5c-.7 0-5.8 3.5-7.1 4.9-1.2 1.3-1.4 1.2-1.4 3.5 0 1.7.2 8.1.1 13.1 0 0-2.2.6-8.1 2.2-5.9 1.6-7.8 1.8-7.8 1.8l-1-5.8L26 25.8s-3.8-1.4-5.2-1.8c-1.4-.4-2.3-.7-4 .6-1.8 1.3-1.7 3.8-1.7 3.8s.4 1 .5 1.4c0 .5-1.2.4-2 .4s-.9-1.4-.3-3.1c.6-1.7 1.9-3.7 1.9-3.7s1.2-2.3 2.1-2.9c0 0 .1-.3 1.2-.2 1.1.1 7.2.4 7.2.4l.1-2.3c6.7-.9 13.4-1.4 20.2-1.3 0 .6 0 1.2-.1 1.8 0 0 4.4-2 8.1-2 0 0 .4 0 .8.4.3.4 2.4 3 2.6 3.4.2.4 1.2 1.7 1.8 3-.2 0-.6 1.4-1 1.8z" fill="#fdc305"/><path class="st1" d="M56.2 19.4c.5.6.9 1.1 1 1.3.2.4 1.2 1.7 1.8 3 0 0-.4 1.3-.9 1.8-.4.4-1.3.7-1.5-.6-.1-1.3-.2-2.2-.2-2.2s-1.9-3.4-2.6-3.5c-.7 0-5.8 3.5-7.1 4.9-1.2 1.3-1.4 1.2-1.4 3.5 0 1.5.2 6.6.1 11.2 1.8.2 4.4.7 5.2 1.9 0 0-.3-7.1 7.8-3.4 0 0 .3-9.7 11.4-7.2.1 0-5.6-7-13.6-10.7zm-10.5-2.3C45.8 8.6 44.3.6 44.3.6s-.1-1.3-.9-.2c-.7 1.1-1.2 3.9-1.2 3.9-7.4-.4-12.8.3-12.8.3-.8-2.7-2.2-3.9-2.9-3.6-.7.3-.7 3.3-.7 3.3l-.3 14.1c6.7-.9 13.5-1.3 20.2-1.3z"/><path d="M45.2 44.8c.1-1.1.2-2.5.2-4 0 0-2.2.6-8.1 2.2-5.9 1.6-7.8 1.8-7.8 1.8l1.1 5c0 .1 0 .2.1.3 1.5 1 3.1 1.8 4.7 2.5 4.4-2.2 6.8-4.1 6.8-4.1v.1c1.2-1.2 2.2-2.5 3-3.8z" fill="#e55645"/><path d="M31.9 14c0-.1 1 .7 1.4.9s.6.4.6.6-.3.3-.6.3-.9-.1-1-.3h1.2c0 .1-1.4-1-1.6-1.5zm7.4.1s-1 1.3-1.1 1.3-.2.3.2.3 1.1-.2 1.2-.3.1-.2-.1-.2-.7 0-1 .1l.8-1.2c.1 0 .1-.1 0 0zm-3.1 6.1s.8-.4 1.1-1 0-.9-.4-1c-.5-.1-1.3 0-1.7.3-.4.4-.3.7-.1 1 .2.2.8.6 1.1.7z"/><path class="st1" d="M35.8 21.4s-.2.4-.5.6c-.2.2-.6.4-1 .4-.6 0-1.1-.2-1.5-.4-.2-.1-.4-.3-.5-.4-.2-.2-.4-.3-.4-.3s.7 4.1 2.6 4.7c1.8.6 2.1-.7 2.2-1.1 0-.3 0-2.1-.8-3.2 0-.3 0-.1-.1-.3z"/><path d="M34.2 22.6c-.1 0-.1 0 0 0-1.3 0-2.3-1.4-2.3-1.4V21h.2s1 1.3 2.1 1.3c.6 0 1.1-.3 1.6-1l.1-.2.1.2s.4.8 1 .8c.5 0 1.1-.4 1.6-1.3 0-.1.1-.1.2 0 .1 0 .1.1 0 .2-.6 1-1.3 1.4-1.9 1.4-.6 0-.9-.5-1.1-.8-.4.7-1 1-1.6 1z"/><path class="st3" d="M41.1 29.2L38 30.5l1.1-5.6-7.5 9.7 3.1-1.3-1.1 5.6 7.5-9.7zM33.7 33l4.1-5.4-.8 4 2-.8-4.1 5.4.8-4-2 .8z"/><path class="st1" d="M45.7 18.9s-2.5 2.2-5.1 5.2C38.1 27 35.3 29 35.3 29c-.2-.5-1.6-1.5-1.6-1.5s-3.1-2.1-5.2-3.8c-1.2-1-2.3-2.2-3.1-3-.3 0-1.1-.1-2-.1 4.7 7 12 8.8 12 8.8.9-.1 3.3-1.9 5.1-3.3s4.8-4.5 5.9-5.9c.6-.7.9-1.4 1.1-2-1.1.4-1.8.7-1.8.7zm-19.9 6.8s-3.8-1.4-5.2-1.8c-1.4-.4-2.3-.7-4 .6-1.8 1.3-1.7 3.8-1.7 3.8s.4 1 .5 1.4c0 .5-1.2.4-2 .4s-.9-1.4-.3-3.1c.6-1.7 1.9-3.7 1.9-3.7-5.4 2.8-15 9.4-15 9.4s2.9-.3 8.2.2c5.2.5 4.9 4.7 4.9 4.7s3.5-1 5.6-1.1c2.1-.1 2.3 2.1 2.3 2.1l.5 3.8s.5-.6 2.6-2.4c1.9-1.5 3.9-1.4 4.4-1.3l-2.7-13z"/><path class="st3" d="M89.6 37.1c-.7-.9-1-2.1-1-3.7v-5.3c0-1.6.3-2.9 1-3.7.7-.8 1.8-1.3 3.4-1.3 1.5 0 2.6.4 3.2 1.1.6.7.9 1.8.9 3.2v1.3h-2.9v-1.4c0-.4 0-.8-.1-1.1 0-.3-.2-.5-.3-.7-.2-.2-.5-.3-.8-.3-.6 0-.9.2-1.1.5-.2.4-.2.9-.2 1.6v6.8c0 .7.1 1.2.3 1.6.2.3.5.5 1 .5s.8-.2 1-.5c.1-.3.2-.9.2-1.6v-1.5h2.9v1.2c0 1.4-.3 2.5-.9 3.3-.6.8-1.7 1.2-3.2 1.2-1.7.1-2.8-.3-3.4-1.2zm11.5-13.8h3.4l2.9 14.9h-2.8l-.6-3.3h-2.4l-.6 3.3h-2.9l3-14.9zm2.6 9.7l-.9-6-.9 6h1.8zm5.8-7.5h-2.3v-2.2h7.6v2.2h-2.3v12.7h-3.1V25.5z"/><path d="M120.8 23.3h5.8v1.5h-3.7v4.9h3v1.5h-3v5.5h3.7v1.5h-5.8V23.3zm7.5 0h1.4l4.2 9.9v-9.9h1.7v14.9h-1.3L130.1 28v10.2h-1.8V23.3zm9.7 0h5.8v1.5h-3.7v4.9h3v1.5h-3v5.5h3.7v1.5H138V23.3zm7.5 0h3c1.5 0 2.6.3 3.3.9.7.6 1.1 1.6 1.1 3 0 1.9-.6 3.1-1.8 3.5l2.1 7.5h-2l-2-7h-1.6v7h-2.1V23.3zm2.9 6.4c.9 0 1.5-.2 1.9-.5.4-.4.6-1 .6-1.9 0-.6-.1-1.1-.2-1.4-.1-.3-.4-.6-.7-.8-.3-.2-.8-.2-1.5-.2h-.9v4.9h.8zm7.3 7.4c-.6-.9-.9-2.1-.9-3.8v-5c0-1.2.1-2.1.4-2.8.2-.7.7-1.3 1.2-1.7.6-.4 1.4-.6 2.4-.6 1.4 0 2.4.3 3 1 .6.7.9 1.8.9 3.3v.6h-2v-.5c0-.7 0-1.3-.1-1.6-.1-.4-.3-.7-.5-.9-.3-.2-.7-.3-1.2-.3-.6 0-1 .1-1.3.4-.3.3-.5.6-.5 1.1-.1.4-.1 1-.1 1.8v5.5c0 1.1.1 2 .4 2.5.3.5.8.7 1.6.7s1.3-.3 1.6-.8c.3-.5.4-1.4.4-2.6v-1h-2v-1.5h3.8v7.4h-1.3l-.2-1.7c-.5 1.3-1.4 1.9-2.7 1.9-1.3-.1-2.3-.5-2.9-1.4zm11.4-4.2l-3.2-9.6h1.9l2.3 7.2 2.2-7.2h2l-3.2 9.6v5.3h-2v-5.3z" fill="#444"/></svg>