<svg version="1.1" id="Layer_1" xmlns="http://www.w3.org/2000/svg" x="0" y="0" viewBox="0 0 202 59.5" xml:space="preserve"><style>.st0{fill:#fdc305}.st1{fill:#f06351}.st3{fill:#111}</style><path class="st0" d="M59.9 24C54.4 11 39.4 4.8 26.4 10.2S7.2 30.7 12.6 43.7c3.6 8.6 11.3 14.2 19.9 15.5-.6-2.1-1.2-4.4-1.7-6.9 1.5 1 3.1 1.8 4.8 2.6 0 0 .1 2.2.3 4.6 1.8 0 3.6-.1 5.3-.5v-.8c.3-1.9 1.1-5.2 1.2-7.4 1.1-1.1 2.1-2.3 2.9-3.7 0 .1 0 .3-.1.4-.6 4.3-1.7 8.8-2.4 10.1-.2.4-.5.9-.8 1.2 1.4-.3 2.7-.8 4.1-1.3C59.2 52 65.3 37 59.9 24zm-1.5 3.8c-.4.4-1.3.7-1.5-.6s-.2-2.2-.2-2.2-1.9-3.4-2.7-3.5c-.7 0-5.8 3.5-7.2 5-1.2 1.3-1.4 1.2-1.4 3.5 0 1.7.2 8.2.1 13.1 0 0-2.2.6-8.1 2.2-6 1.6-7.8 1.8-7.8 1.8l-1-5.8L25.9 28s-3.8-1.4-5.2-1.8c-1.4-.4-2.3-.7-4 .6-1.8 1.3-1.7 3.9-1.7 3.9s.4 1 .5 1.4c0 .5-1.2.4-2 .4s-.9-1.4-.3-3.1c.6-1.7 1.9-3.7 1.9-3.7s1.2-2.3 2.1-2.9c0 0 .1-.3 1.3-.2 1.1.1 7.3.4 7.3.4l.1-2.3c6.7-.9 13.5-1.4 20.2-1.3 0 .6 0 1.2-.1 1.8 0 0 4.4-2 8.1-2 0 0 .4 0 .8.4.3.4 2.4 3 2.7 3.4.2.4 1.2 1.7 1.8 3-.1 0-.6 1.3-1 1.8z"/><path class="st1" d="M56.5 21.7c.5.6.9 1.1 1 1.3.2.4 1.2 1.7 1.8 3 0 0-.4 1.3-.9 1.8s-1.3.7-1.5-.6-.2-2.2-.2-2.2-1.9-3.4-2.7-3.5c-.7 0-5.8 3.5-7.2 5-1.2 1.3-1.4 1.2-1.4 3.5 0 1.5.2 6.6.1 11.2 1.8.2 4.5.7 5.3 1.9 0 0-.3-7.2 7.8-3.4 0 0 .3-9.8 11.5-7.3.1 0-5.6-7-13.6-10.7zm-10.6-2.3c.1-8.5-1.4-16.5-1.4-16.5s-.1-1.3-.9-.2c-.7 1.1-1.2 4-1.2 4-7.4-.6-12.8.2-12.8.2-.8-2.7-2.2-4-2.9-3.7-.6.3-.7 3.3-.7 3.3l-.3 14.2c6.7-.9 13.5-1.4 20.2-1.3z"/><path d="M45.4 47.1c.1-1.1.2-2.5.2-4.1 0 0-2.2.6-8.1 2.2-6 1.6-7.8 1.8-7.8 1.8l1.1 5c0 .1 0 .2.1.3 1.5 1 3.1 1.8 4.8 2.6 4.4-2.2 6.9-4.1 6.9-4.1v.1c1-1.1 2-2.4 2.8-3.8z" fill="#e55645"/><path d="M32 16.2c0-.1 1 .7 1.4.9.4.2.6.4.6.6 0 .2-.3.3-.6.3s-.9-.1-1-.3h1.2c.1.1-1.3-1-1.6-1.5zm7.5.1l-1.1 1.3c0 .1-.2.3.2.3s1.1-.2 1.2-.3c.1-.1.1-.2-.1-.2s-.7 0-1 .1l.8-1.2c.1 0 .1-.1 0 0zm-3.1 6.1s.8-.4 1.1-1c.3-.7 0-.9-.4-1s-1.3 0-1.7.3c-.4.4-.3.7-.1 1 .2.3.8.7 1.1.7z"/><path class="st1" d="M35.9 23.7s-.2.4-.5.6c-.2.2-.6.4-1 .4-.6 0-1.1-.2-1.5-.4-.2-.1-.4-.3-.5-.4-.2-.2-.4-.3-.4-.3s.8 4.1 2.6 4.8c1.8.7 2.2-.8 2.2-1.1 0-.3 0-2.1-.8-3.2.1-.5 0-.3-.1-.4z"/><path d="M34.3 24.8c-1.3 0-2.3-1.4-2.4-1.4v-.2h.2s1 1.3 2.1 1.3c.6 0 1.1-.3 1.6-1l.1-.2.1.2s.4.8 1 .8c.5 0 1.1-.4 1.6-1.3 0-.1.1-.1.2 0 .1 0 .1.1 0 .2-.6 1-1.3 1.5-1.9 1.4-.6 0-.9-.5-1.1-.8-.3.7-.9 1-1.5 1z"/><circle transform="rotate(-22.676 36.253 34.547)" class="st0" cx="36.3" cy="34.5" r="3.8"/><path class="st3" d="M41.2 31.5l-3.1 1.3 1.1-5.6-7.5 9.8 3.1-1.3-1.1 5.6 7.5-9.8zm-7.4 3.8l4.1-5.4-.8 4 2-.8-4.1 5.4.8-4-2 .8z"/><circle transform="rotate(-22.676 32.435 32.742)" class="st3" cx="32.4" cy="32.7" r="1.1"/><circle transform="rotate(-22.676 38.956 37.134)" class="st3" cx="39" cy="37.1" r=".8"/><circle transform="rotate(-22.676 39.92 35.398)" class="st3" cx="39.9" cy="35.4" r=".3"/><path class="st1" d="M45.9 21.2s-2.6 2.3-5.1 5.2-5.3 4.9-5.3 4.9c-.2-.5-1.6-1.5-1.6-1.5s-3.1-2.1-5.2-3.8c-1.2-1-2.4-2.2-3.1-3-.3 0-1.1-.1-2-.1 4.7 7 12 8.8 12 8.8.9-.1 3.3-1.9 5.1-3.3 1.8-1.4 4.8-4.5 6-5.9.6-.7.9-1.4 1.1-2-1.2.3-1.9.7-1.9.7z"/><path class="st0" d="M65.2 3.5l-8.4 9.4-1.3-2L63.7 0zm-2.6 13.8l5.6-4.2-.8-3.7-5.4 4.8zm-2.7 32.1l6.2 3.2 3-2.4-6.7-2.7zM2 6l3-3.4 9.3 9-1.2 2.3zm5.4 10.3l-4.7-3.1L.3 17l5.1 2.4zm6.5 36.3l-4.5 3.3 2.8 3.6 4-4z"/><path class="st1" d="M25.9 28s-3.8-1.4-5.2-1.8c-1.4-.4-2.3-.7-4 .6-1.8 1.3-1.7 3.9-1.7 3.9s.4 1 .5 1.4c0 .5-1.2.4-2 .4s-.9-1.4-.3-3.1c.6-1.7 1.9-3.7 1.9-3.7-5.4 2.8-15 9.4-15 9.4s2.9-.3 8.2.2c5.3.5 5 4.7 5 4.7s3.5-1 5.6-1.1c2.1-.1 2.3 2.1 2.3 2.1l.5 3.9s.5-.6 2.7-2.4c1.9-1.5 3.9-1.4 4.4-1.3L25.9 28z"/><path class="st3" d="M85.7 42c-.9-1.2-1.4-2.9-1.4-5.2v-7.5c0-2.3.5-4.1 1.4-5.2.9-1.2 2.5-1.8 4.8-1.8 2.1 0 3.7.5 4.5 1.6.9 1 1.3 2.5 1.3 4.5v1.8h-4.1v-1.9c0-.6 0-1.1-.1-1.5-.1-.4-.2-.7-.5-.9-.2-.2-.6-.4-1.2-.4-.8 0-1.3.3-1.5.8-.2.5-.3 1.2-.3 2.2V38c0 1 .1 1.7.4 2.2.3.5.7.7 1.4.7s1.2-.2 1.4-.7c.2-.5.3-1.2.3-2.2v-2h4.1v1.7c0 2-.4 3.6-1.3 4.6-.9 1.1-2.4 1.6-4.6 1.6-2.1-.1-3.7-.7-4.6-1.9zm16.2-19.4h4.7l4 21h-3.9l-.8-4.6h-3.3l-.8 4.6h-4l4.1-21zm3.7 13.7l-1.3-8.4-1.2 8.4h2.5zm8.1-10.6h-3.2v-3.2h10.7v3.2H118v17.8h-4.3V25.7z"/><path d="M129.6 22.6h8.1v2.2h-5.2v6.9h4.2v2.1h-4.2v7.7h5.3v2.1h-8.2v-21zm10.5 0h2l6 13.9V22.6h2.4v21h-1.9l-6-14.3v14.3h-2.5v-21zm13.7 0h8.1v2.2h-5.2v6.9h4.2v2.1h-4.2v7.7h5.3v2.1h-8.2v-21zm10.6 0h4.2c2.1 0 3.7.4 4.7 1.3s1.5 2.3 1.5 4.3c0 2.7-.9 4.3-2.6 4.9l3 10.5h-2.8l-2.7-9.8h-2.3v9.8h-2.9v-21zm4 9c1.3 0 2.2-.2 2.7-.8.5-.5.8-1.4.8-2.7 0-.9-.1-1.5-.3-2-.2-.5-.5-.9-1-1.1-.5-.2-1.2-.3-2-.3h-1.3v6.9h1.1zM178.7 42c-.8-1.2-1.3-3-1.3-5.3v-7c0-1.6.2-3 .5-4s.9-1.8 1.7-2.4c.8-.6 1.9-.8 3.4-.8 1.9 0 3.3.5 4.2 1.5.9 1 1.3 2.5 1.3 4.6v.8h-2.7v-.6c0-1-.1-1.8-.2-2.3-.1-.5-.4-1-.8-1.2-.4-.3-1-.4-1.7-.4-.8 0-1.4.2-1.8.6-.4.4-.7.9-.8 1.5-.1.6-.2 1.4-.2 2.5V37c0 1.6.2 2.8.6 3.5.4.7 1.1 1 2.2 1s1.8-.4 2.2-1.1c.4-.8.6-2 .6-3.6v-1.4h-2.7v-2.1h5.3v10.4h-1.8l-.3-2.4c-.7 1.8-1.9 2.7-3.7 2.7-1.8-.2-3.2-.8-4-2zm16-5.9l-4.5-13.6h2.7l3.2 10.1 3.2-10.1h2.7l-4.5 13.6v7.4h-2.8v-7.4z" fill="#444"/></svg>