<svg xmlns="http://www.w3.org/2000/svg" xmlns:xlink="http://www.w3.org/1999/xlink"><symbol id="icon-fb" viewBox="34.8 -4.7 13.5 27.8"><path d="M44.32 23.041h-6.816V10.137h-2.715V3.763h2.629c-.202-2.887.298-5 1.519-6.444 1.039-1.229 2.583-1.911 4.588-2.026l4.782-.001v6.15h-3.755c-.166.315-.251 1.093-.252 2.321h3.978v6.375H44.32v12.903zm-5.316-1.5h3.816V8.637h3.957V5.263h-3.953l-.016-.734c-.044-2.04.002-3.784 1.007-4.46l.19-.127h2.801v-3.15h-3.239c-1.557.091-2.711.581-3.485 1.496-1.041 1.231-1.41 3.298-1.099 6.144l.092.832h-2.786v3.375h2.715v12.902z"/></symbol><symbol id="icon-insta" viewBox="-3 -3 23 23"><path d="M14.002-1.501C16.482-1.501 18.5.519 18.5 3v11c0 2.481-2.018 4.5-4.498 4.5H3.01A4.504 4.504 0 01-1.488 14V3C-1.488.519.53-1.5 3.01-1.5h10.992m0-1.5H3.01C-.29-3-2.987-.301-2.987 3v11.001C-2.987 17.299-.29 20 3.01 20h10.995C17.301 20 20 17.299 20 13.999V3c0-3.301-2.699-6-5.998-6z"/><path d="M8.506 4.078a4.434 4.434 0 014.429 4.428c0 2.44-1.989 4.43-4.429 4.43a4.434 4.434 0 01-4.428-4.43 4.431 4.431 0 014.428-4.428m0-1.5a5.929 5.929 0 000 11.855c3.274 0 5.926-2.653 5.926-5.927S11.78 2.578 8.506 2.578z"/><circle cx="14.6" cy="2.4" r="1.3"/></symbol><symbol id="icon-mail" viewBox="0 0 17 13"><path d="M15.6 11.6H1.4V5.8H0V13h17V5.8h-1.4v5.8zM0 0v2.3l8.5 7.1L17 2.3V0H0zm15.6 1.6L8.5 7.5 1.4 1.6v-.2h14.2v.2z"/></symbol><symbol id="icon-phone" viewBox="0 0 20 20"><path d="M17.9 9.4H9.4v1.2h8.5l-2.1 2.1.9.9 3.1-3.1c.2-.2.2-.6 0-.9l-3.1-3.1-.9.9 2.1 2zm-9.8 10v-6.2c0-.3-.3-.6-.6-.6H3.1c0 .7.6 1.2 1.2 1.2h2.5v5H3.1c-1 .1-1.8-.7-1.9-1.7v-14c0-1 .8-1.8 1.7-1.8h3.9v5H4.4c-.7 0-1.2.6-1.2 1.2h4.4c.3 0 .6-.3.6-.6V.6C8.1.3 7.8 0 7.5 0H3.1C1.5-.1.1 1.2 0 2.9v13.9c-.1 1.7 1.2 3.1 2.9 3.1h4.6c.3.1.6-.2.6-.5z"/></symbol><symbol id="icon-vk" viewBox="3 11.6 30 15.8"><path d="M26.945 27.388c-.386 0-1.17-.082-2.075-.632-.642-.385-1.223-.968-1.784-1.532-.438-.44-1.171-1.177-1.447-1.177-.268.075-.481.921-.476 1.569.004.113-.001.774-.468 1.213-.425.4-1.088.485-1.216.498l-1.926.007c-.967 0-4.358-.218-7.429-3.021-3.674-3.358-6.835-9.798-6.968-10.07-.197-.462-.248-1.066.152-1.482.392-.413 1.081-.472 1.359-.479l4.083-.024.115.008c.091.014.567.095.957.349.388.247.59.651.626.73.01.021.649 1.432 1.475 2.684 1.312 1.99 1.896 2.455 2.103 2.562.188-.417.277-1.7.187-2.871.001-.493-.101-1.098-.252-1.278-.112-.134-.426-.253-.778-.294l-.722-.691c-.096-.658.635-1.226 1.149-1.446.737-.316 1.792-.382 3.147-.382l.71.005c1.235.012 1.622.081 2.149.191 1.702.361 1.64 1.729 1.567 3.312-.021.464-.046 1.001-.046 1.621 0 .151-.005.312-.011.479-.012.38-.032 1.038.093 1.304.219-.145.852-.665 2.072-2.483.783-1.165 1.4-2.539 1.517-2.803l.001-.001c.182-.43.608-.941 1.613-.946l4.274-.024c.012-.003.172-.016.377-.016.98 0 1.597.287 1.832.854.269.65.169 1.657-2.354 4.605-.37.432-.697.804-.982 1.127-.598.678-1.216 1.379-1.237 1.595.053.169.662.665 1.252 1.145 1.53 1.247 2.528 2.264 3.033 3.073.522.759.429 1.33.258 1.677-.424.864-1.638.973-1.877.985l-3.79.047a2.525 2.525 0 01-.263.012zm-5.307-4.84c.899 0 1.682.786 2.511 1.618.497.5 1.011 1.016 1.496 1.307.727.44 1.316.421 1.398.412l.103-.009 3.805-.047c.171-.012.411-.073.536-.136a1.167 1.167 0 00-.098-.167c-.449-.718-1.388-1.659-2.686-2.718-1.184-.963-1.801-1.465-1.865-2.244-.066-.805.493-1.439 1.607-2.703.28-.318.604-.685.967-1.109 1.559-1.821 1.957-2.64 2.058-2.956-.17-.029-.648-.021-.678-.018l-4.361.028c-.191.001-.249.035-.249.036-.176.414-.812 1.812-1.644 3.05-1.895 2.82-2.785 3.2-3.407 3.201-.204 0-.396-.05-.569-.148-1.003-.569-.963-1.834-.934-2.757.005-.149.01-.295.01-.431 0-.646.025-1.207.048-1.689.076-1.68.016-1.692-.379-1.776-.409-.086-.705-.147-1.856-.159l-.693-.005c-.624 0-1.343.014-1.906.098.092.074.18.157.259.251.588.704.604 1.951.601 2.194.13 1.646.061 3.796-1.018 4.313a1.365 1.365 0 01-.597.137c-.926 0-1.854-.885-3.425-3.267a22.863 22.863 0 01-1.587-2.887.47.47 0 00-.075-.094 1.133 1.133 0 00-.32-.116l-4.001.024c-.021.001-.045.002-.07.005.591 1.189 3.426 6.592 6.519 9.419 2.74 2.502 5.826 2.629 6.417 2.629l1.851-.003c.046-.01.218-.062.269-.1-.019.018-.01-.053-.01-.097-.003-.265.012-2.595 1.578-3.034.126-.034.259-.052.395-.052z"/></symbol><symbol id="logo-htmlacademy" viewBox="0 0 27 34"><path d="M13.643.016L13.5 0 0 1.407v24.606L13.5 34 27 26.013V1.407L13.643.016zm11.591 25L13.5 31.956 1.766 25.015V14.93l11.685 6.916.02 1.253-8.017-4.743-.011 1.225 8.046 4.809.02 1.286-8.045-4.758-.01 1.226L13.5 26.95l8.124-4.833V16.91l3.62-2.15-.01 10.256zm0-11.564l-3.22 1.88-1.482.875-7.065-4.187-.011 1.225 6.04 3.573-.053.031-.13.076-.86.492-4.986-2.948-.011 1.225 3.936 2.328-.933.61-.021.012-2.971-1.742-.011 1.225 1.947 1.135-1.988 1.186-11.618-6.872 11.638-6.958 11.8 6.834zm0-1.225L13.44 5.31 1.766 12.22V2.99L13.5 1.764 25.234 2.99v9.237z"/></symbol></svg>